# xmcd
#
# Track frame offsets: 
#        150
#        5430
#        13454
#        39307
#        65110
#        85361
#        106394
#        127540
#        148443
#
# Disc length: 2313 seconds
#
# Revision: 0
# Processed by: cddbd v1.5.2PL0 Copyright (c) Steve Scherf et al.
# Submitted via: ExactAudioCopyFreeDBPlugin 1.0
#
DISCID=7a090709
DTITLE=Ti Citron - Ti Citron Chante Noël
DYEAR=2003
DGENRE=Country
TTITLE0=Unknown Artist - Intro
TTITLE1=Unknown Artist - Information
TTITLE2=Unknown Artist - Retour de mon voisin
TTITLE3=Unknown Artist - Man Zizi
TTITLE4=Unknown Artist - Oh la bonne nouvelle
TTITLE5=Unknown Artist - Ti Citron
TTITLE6=Unknown Artist - Po ko jugé
TTITLE7=Unknown Artist - Enfants de l'univers
TTITLE8=Unknown Artist - Information- Retour de mon voisin
EXTD=
EXTT0=
EXTT1=
EXTT2=
EXTT3=
EXTT4=
EXTT5=
EXTT6=
EXTT7=
EXTT8=
PLAYORDER=
